# xmcd CD database file
#
# Track frame offsets:
#	150
#	17167
#	31807
#	50967
#	65491
#	91954
#	121373
#
# Disc length: 1795 seconds
#
# Revision: 0
# Processed by: cddbd v1.5.2PL0 Copyright (c) Steve Scherf et al.
# Submitted via: CDex 1.70beta2
#
DISCID=5b070107
DTITLE=Chris Watson - Just For Show
DYEAR=1900
DGENRE=Blues
TTITLE0=Just For Show
TTITLE1=My Biggest mistake
TTITLE2=Last Dollar
TTITLE3=Why Can;t You Love Me
TTITLE4=Say Your Goodbyes
TTITLE5=Mean Hearted Woman
TTITLE6=T-Bone Swing
EXTD=
EXTT0=
EXTT1=
EXTT2=
EXTT3=
EXTT4=
EXTT5=
EXTT6=
PLAYORDER=
